<svg version="1.1" id="Layer_1" xmlns="http://www.w3.org/2000/svg" xmlns:xlink="http://www.w3.org/1999/xlink" x="0px" y="0px"
	 width="100%" viewBox="0 0 1024 1024" enable-background="new 0 0 1024 1024" xml:space="preserve">
<path fill="#FEFFFF" opacity="1.000000" stroke="none" 
	d="
M476.000000,1025.000000 
	C317.333344,1025.000000 159.166672,1025.000000 1.000000,1025.000000 
	C1.000000,683.666687 1.000000,342.333344 1.000000,1.000000 
	C342.333344,1.000000 683.666687,1.000000 1025.000000,1.000000 
	C1025.000000,342.333344 1025.000000,683.666687 1025.000000,1025.000000 
	C842.166687,1025.000000 659.333313,1025.000000 476.000000,1025.000000 
M295.067200,613.969543 
	C295.553284,628.207703 296.039398,642.445862 296.541443,657.151672 
	C301.045410,655.499939 304.850433,653.932983 308.760406,652.698547 
	C333.584320,644.861267 359.189178,641.992554 385.062286,641.072205 
	C388.598938,640.946411 389.962524,640.140015 390.117859,636.327881 
	C391.298157,607.370361 392.708740,578.422180 394.063232,549.471863 
	C394.136139,547.913330 394.350433,546.361267 394.498901,544.806213 
	C394.927399,544.625366 395.355896,544.444519 395.784393,544.263672 
	C429.101471,578.571472 462.418518,612.879211 495.873169,647.328674 
	C534.188965,618.431458 572.018127,589.901245 610.908752,560.570496 
	C606.709045,594.619263 602.726868,626.904785 598.737244,659.250488 
	C630.185791,666.843323 660.923218,674.213013 688.790344,692.328064 
	C691.412415,677.550415 693.925842,663.385254 696.843445,648.487366 
	C702.203857,622.771057 707.637146,597.069702 712.909424,571.335327 
	C723.856445,517.902100 734.727966,464.453308 745.604736,411.005707 
	C747.333374,402.511078 748.928650,393.989319 750.769043,384.538086 
	C736.515686,392.061981 723.246582,398.947052 710.165466,406.172363 
	C708.975037,406.829926 708.231934,409.831451 708.576721,411.472198 
	C710.182556,419.114227 711.979431,426.741272 714.255859,434.206604 
	C715.374084,437.873901 714.241272,439.508026 711.319092,441.415619 
	C694.739075,452.239227 678.302063,463.281799 661.768860,474.177734 
	C660.480774,475.026581 658.828430,475.322784 657.207031,475.056732 
	C652.991150,457.784882 649.295471,440.362457 644.355713,423.300171 
	C641.587830,413.739502 642.142700,406.382935 651.157898,400.959167 
	C651.851501,400.541870 652.484558,399.898895 652.921692,399.217133 
	C653.322876,398.591736 653.829773,397.583435 653.591187,397.066101 
	C650.015503,389.312439 646.323914,381.612183 642.775330,374.142883 
	C641.834961,374.255554 641.639893,374.223480 641.513733,374.302032 
	C636.860535,377.198730 632.204407,380.090729 627.568481,383.014801 
	C620.631042,387.390503 620.626831,387.402863 622.347473,395.261078 
	C622.738220,397.045685 623.042664,398.882996 623.714722,400.565063 
	C625.021667,403.835999 623.951965,406.015198 621.456970,408.343903 
	C607.604126,421.273651 593.908264,434.371460 579.493347,447.028229 
	C578.316345,444.123383 577.039917,441.254425 575.977539,438.308258 
	C563.616333,404.029358 551.325195,369.725128 538.884827,335.475067 
	C537.780945,332.435883 538.044373,330.173645 540.051514,327.711487 
	C545.726807,320.749695 551.076294,313.514191 556.928650,306.708710 
	C559.333252,303.912537 559.038208,302.096100 556.987671,299.440002 
	C550.987610,291.668121 545.227051,283.711609 539.346436,275.847076 
	C536.283997,271.751556 533.166321,267.697327 530.219177,263.816132 
	C529.330261,264.028809 528.921326,264.002533 528.713257,264.194183 
	C517.574158,274.454865 506.401794,284.680939 495.424896,295.112793 
	C494.558472,295.936188 494.435272,298.505463 495.034576,299.748444 
	C498.499359,306.934570 501.860748,314.232666 506.093872,320.966858 
	C509.599670,326.543976 509.087189,330.957642 505.818909,336.424561 
	C486.432770,368.851746 467.362579,401.467712 448.131165,433.987732 
	C447.340820,435.324188 446.001007,436.335754 444.471527,436.926788 
	C433.915405,423.621643 424.020325,409.710022 412.567657,397.227478 
	C405.103607,389.092163 402.857056,381.857025 408.930237,372.523560 
	C409.289581,371.971283 409.721405,371.323608 409.726471,370.717072 
	C409.733978,369.819794 409.702820,368.548950 409.145966,368.077362 
	C402.863068,362.756348 396.476471,357.557831 389.886658,352.136353 
	C387.352234,356.137207 385.228241,359.506378 383.087677,362.864960 
	C380.676056,366.648865 376.146057,370.573761 376.402832,374.160614 
	C376.676239,377.980133 381.258972,381.673523 384.366943,385.047272 
	C386.650909,387.526581 386.733032,389.616150 385.514374,392.619843 
	C377.883026,411.428955 370.446716,430.317261 362.201172,449.240448 
	C359.483093,447.174377 356.657318,445.234436 354.064972,443.021118 
	C340.784668,431.682587 327.593597,420.239410 314.296906,408.920288 
	C311.855560,406.842072 311.033875,405.063690 312.454773,401.743683 
	C315.722046,394.109589 318.251007,386.162811 321.359497,378.455811 
	C322.533905,375.544037 321.887604,373.782806 319.439545,372.166504 
	C314.721405,369.051544 310.061584,365.847717 305.394958,362.655334 
	C298.193481,357.728851 291.006653,352.780975 282.936371,347.239899 
	C282.936371,350.095978 282.877960,351.709320 282.945312,353.317444 
	C283.724518,371.928864 284.514587,390.539856 285.339569,409.149292 
	C285.381958,410.105255 285.767151,411.045990 285.884888,412.927826 
	C286.321869,422.890442 286.762604,432.852875 287.195190,442.815674 
	C289.242828,489.977173 291.249268,537.140564 293.366791,584.298889 
	C293.798553,593.914124 294.645111,603.510681 295.067200,613.969543 
M337.836548,678.365906 
	C336.365265,678.653015 334.840881,678.781372 333.431213,679.252747 
	C323.379120,682.613953 313.005920,685.294861 303.424377,689.693909 
	C295.888458,693.153809 295.064850,699.156006 300.973450,705.055115 
	C306.298767,710.371948 312.585205,715.056274 319.170471,718.720825 
	C341.313721,731.043152 365.498688,738.099365 389.946686,743.973145 
	C451.706757,758.811279 514.435486,764.415833 577.852356,761.875610 
	C605.030273,760.786987 632.069031,757.858765 657.949768,748.814819 
	C664.740967,746.441589 671.308472,742.801270 677.189697,738.630310 
	C682.872925,734.599792 682.637817,729.581848 677.677917,724.615173 
	C675.460632,722.394775 672.940674,720.406799 670.322449,718.668213 
	C657.373535,710.069580 642.483276,706.107483 627.976440,701.264404 
	C626.862366,700.892456 625.211731,701.046204 624.194153,701.627319 
	C606.339294,711.823975 586.538635,714.754395 566.601074,716.400574 
	C517.570129,720.448792 469.131836,716.042175 421.298126,704.735718 
	C402.608673,700.318115 383.766327,695.384888 367.875793,684.547302 
	C358.295593,678.013428 349.591187,675.047974 337.836548,678.365906 
z"/>
<path fill="#EFB942" opacity="1.000000" stroke="none" 
	d="
M285.992737,411.993835 
	C285.767151,411.045990 285.381958,410.105255 285.339569,409.149292 
	C284.514587,390.539856 283.724518,371.928864 282.945312,353.317444 
	C282.877960,351.709320 282.936371,350.095978 282.936371,347.239899 
	C291.006653,352.780975 298.193481,357.728851 305.394958,362.655334 
	C310.061584,365.847717 314.721405,369.051544 319.439545,372.166504 
	C321.887604,373.782806 322.533905,375.544037 321.359497,378.455811 
	C318.251007,386.162811 315.722046,394.109589 312.454773,401.743683 
	C311.033875,405.063690 311.855560,406.842072 314.296906,408.920288 
	C327.593597,420.239410 340.784668,431.682587 354.064972,443.021118 
	C356.657318,445.234436 359.483093,447.174377 362.669800,449.526306 
	C365.948212,452.821777 368.919312,455.699097 371.525146,458.876038 
	C374.489655,462.490356 378.065735,463.445129 382.553925,462.823486 
	C399.485565,460.478302 416.442444,458.315979 433.378601,456.002594 
	C434.583740,455.838013 436.298615,455.317627 436.756256,454.434174 
	C439.637299,448.872253 442.229523,443.160736 444.917206,437.498688 
	C446.001007,436.335754 447.340820,435.324188 448.131165,433.987732 
	C467.362579,401.467712 486.432770,368.851746 505.818909,336.424561 
	C509.087189,330.957642 509.599670,326.543976 506.093872,320.966858 
	C501.860748,314.232666 498.499359,306.934570 495.034576,299.748444 
	C494.435272,298.505463 494.558472,295.936188 495.424896,295.112793 
	C506.401794,284.680939 517.574158,274.454865 528.713257,264.194183 
	C528.921326,264.002533 529.330261,264.028809 530.219177,263.816132 
	C533.166321,267.697327 536.283997,271.751556 539.346436,275.847076 
	C545.227051,283.711609 550.987610,291.668121 556.987671,299.440002 
	C559.038208,302.096100 559.333252,303.912537 556.928650,306.708710 
	C551.076294,313.514191 545.726807,320.749695 540.051514,327.711487 
	C538.044373,330.173645 537.780945,332.435883 538.884827,335.475067 
	C551.325195,369.725128 563.616333,404.029358 575.977539,438.308258 
	C577.039917,441.254425 578.316345,444.123383 579.792236,447.593079 
	C581.918884,454.146118 583.508606,460.223907 585.709351,466.071655 
	C586.434875,467.999420 588.462036,470.183044 590.365662,470.804321 
	C606.406250,476.039734 622.552551,480.952362 638.681458,485.915131 
	C639.902771,486.290955 641.639954,486.921539 642.449585,486.388702 
	C647.523499,483.049500 652.402161,479.413605 657.345398,475.875854 
	C658.828430,475.322784 660.480774,475.026581 661.768860,474.177734 
	C678.302063,463.281799 694.739075,452.239227 711.319092,441.415619 
	C714.241272,439.508026 715.374084,437.873901 714.255859,434.206604 
	C711.979431,426.741272 710.182556,419.114227 708.576721,411.472198 
	C708.231934,409.831451 708.975037,406.829926 710.165466,406.172363 
	C723.246582,398.947052 736.515686,392.061981 750.769043,384.538086 
	C748.928650,393.989319 747.333374,402.511078 745.604736,411.005707 
	C734.727966,464.453308 723.856445,517.902100 712.909424,571.335327 
	C707.637146,597.069702 702.203857,622.771057 696.326294,648.759277 
	C683.834900,643.727417 671.928162,638.261536 659.839050,633.234070 
	C656.814392,631.976074 655.609619,630.624451 656.010864,627.441467 
	C657.794983,613.289185 659.462585,599.122253 661.205872,584.964783 
	C663.738831,564.394287 666.360596,543.834290 668.703735,523.242371 
	C668.846497,521.987793 667.119690,519.625549 665.847107,519.271118 
	C661.880127,518.166199 657.722778,517.712158 653.622192,517.124878 
	C634.086243,514.327148 614.555969,511.481842 594.989502,508.914124 
	C592.716797,508.615845 589.829834,509.335297 587.922668,510.617004 
	C582.695618,514.129944 577.863220,518.226257 572.831848,522.035095 
	C550.446838,538.980957 528.017883,555.869202 505.686127,572.884949 
	C502.632568,575.211609 500.573914,575.388794 497.738129,572.369629 
	C482.809509,556.475708 467.645935,540.802734 452.623505,524.996399 
	C443.570038,515.470459 434.557281,505.903625 425.676971,496.216949 
	C423.307587,493.632477 420.727905,492.749634 417.321564,492.884277 
	C412.333832,493.081421 407.326965,492.937134 402.332428,492.793274 
	C383.718353,492.257324 365.105164,491.687592 346.493988,491.060211 
	C343.887329,490.972321 343.057434,491.994202 342.959412,494.543427 
	C342.429443,508.327057 341.658539,522.101440 341.140167,535.885437 
	C340.640015,549.185547 340.367737,562.494202 339.930267,575.796875 
	C339.881989,577.265320 339.406647,578.719727 338.781921,580.091064 
	C326.040894,568.190552 318.732697,553.181580 314.170685,537.226685 
	C307.308105,513.225708 301.465393,488.898010 296.163330,464.497528 
	C292.262756,446.546967 289.920898,428.257660 286.976929,410.671844 
	C286.950836,410.706879 286.471802,411.350372 285.992737,411.993835 
z"/>
<path fill="#CA581C" opacity="1.000000" stroke="none" 
	d="
M339.129395,580.180603 
	C339.406647,578.719727 339.881989,577.265320 339.930267,575.796875 
	C340.367737,562.494202 340.640015,549.185547 341.140167,535.885437 
	C341.658539,522.101440 342.429443,508.327057 342.959412,494.543427 
	C343.057434,491.994202 343.887329,490.972321 346.493988,491.060211 
	C365.105164,491.687592 383.718353,492.257324 402.332428,492.793274 
	C407.326965,492.937134 412.333832,493.081421 417.321564,492.884277 
	C420.727905,492.749634 423.307587,493.632477 425.676971,496.216949 
	C434.557281,505.903625 443.570038,515.470459 452.623505,524.996399 
	C467.645935,540.802734 482.809509,556.475708 497.738129,572.369629 
	C500.573914,575.388794 502.632568,575.211609 505.686127,572.884949 
	C528.017883,555.869202 550.446838,538.980957 572.831848,522.035095 
	C577.863220,518.226257 582.695618,514.129944 587.922668,510.617004 
	C589.829834,509.335297 592.716797,508.615845 594.989502,508.914124 
	C614.555969,511.481842 634.086243,514.327148 653.622192,517.124878 
	C657.722778,517.712158 661.880127,518.166199 665.847107,519.271118 
	C667.119690,519.625549 668.846497,521.987793 668.703735,523.242371 
	C666.360596,543.834290 663.738831,564.394287 661.205872,584.964783 
	C659.462585,599.122253 657.794983,613.289185 656.010864,627.441467 
	C655.609619,630.624451 656.814392,631.976074 659.839050,633.234070 
	C671.928162,638.261536 683.834900,643.727417 696.124146,649.125610 
	C693.925842,663.385254 691.412415,677.550415 688.790344,692.328064 
	C660.923218,674.213013 630.185791,666.843323 598.737244,659.250488 
	C602.726868,626.904785 606.709045,594.619263 610.908752,560.570496 
	C572.018127,589.901245 534.188965,618.431458 495.873169,647.328674 
	C462.418518,612.879211 429.101471,578.571472 395.784393,544.263672 
	C395.355896,544.444519 394.927399,544.625366 394.498901,544.806213 
	C394.350433,546.361267 394.136139,547.913330 394.063232,549.471863 
	C392.708740,578.422180 391.298157,607.370361 390.117859,636.327881 
	C389.962524,640.140015 388.598938,640.946411 385.062286,641.072205 
	C359.189178,641.992554 333.584320,644.861267 308.760406,652.698547 
	C304.850433,653.932983 301.045410,655.499939 296.541443,657.151672 
	C296.039398,642.445862 295.553284,628.207703 295.578552,613.536987 
	C296.421722,613.087646 296.764893,613.120239 297.083618,613.046631 
	C310.257294,610.004883 323.449524,607.036377 336.562103,603.750305 
	C337.641327,603.479858 338.792389,601.071655 338.860199,599.608032 
	C339.159790,593.141968 339.075012,586.658020 339.129395,580.180603 
z"/>
<path fill="#A14117" opacity="1.000000" stroke="none" 
	d="
M338.266724,678.293884 
	C349.591187,675.047974 358.295593,678.013428 367.875793,684.547302 
	C383.766327,695.384888 402.608673,700.318115 421.298126,704.735718 
	C469.131836,716.042175 517.570129,720.448792 566.601074,716.400574 
	C586.538635,714.754395 606.339294,711.823975 624.194153,701.627319 
	C625.211731,701.046204 626.862366,700.892456 627.976440,701.264404 
	C642.483276,706.107483 657.373535,710.069580 670.322449,718.668213 
	C672.940674,720.406799 675.460632,722.394775 677.677917,724.615173 
	C682.637817,729.581848 682.872925,734.599792 677.189697,738.630310 
	C671.308472,742.801270 664.740967,746.441589 657.949768,748.814819 
	C632.069031,757.858765 605.030273,760.786987 577.852356,761.875610 
	C514.435486,764.415833 451.706757,758.811279 389.946686,743.973145 
	C365.498688,738.099365 341.313721,731.043152 319.170471,718.720825 
	C312.585205,715.056274 306.298767,710.371948 300.973450,705.055115 
	C295.064850,699.156006 295.888458,693.153809 303.424377,689.693909 
	C313.005920,685.294861 323.379120,682.613953 333.431213,679.252747 
	C334.840881,678.781372 336.365265,678.653015 338.266724,678.293884 
z"/>
<path fill="#9F3F16" opacity="1.000000" stroke="none" 
	d="
M444.694366,437.212738 
	C442.229523,443.160736 439.637299,448.872253 436.756256,454.434174 
	C436.298615,455.317627 434.583740,455.838013 433.378601,456.002594 
	C416.442444,458.315979 399.485565,460.478302 382.553925,462.823486 
	C378.065735,463.445129 374.489655,462.490356 371.525146,458.876038 
	C368.919312,455.699097 365.948212,452.821777 363.042114,449.495728 
	C370.446716,430.317261 377.883026,411.428955 385.514374,392.619843 
	C386.733032,389.616150 386.650909,387.526581 384.366943,385.047272 
	C381.258972,381.673523 376.676239,377.980133 376.402832,374.160614 
	C376.146057,370.573761 380.676056,366.648865 383.087677,362.864960 
	C385.228241,359.506378 387.352234,356.137207 389.886658,352.136353 
	C396.476471,357.557831 402.863068,362.756348 409.145966,368.077362 
	C409.702820,368.548950 409.733978,369.819794 409.726471,370.717072 
	C409.721405,371.323608 409.289581,371.971283 408.930237,372.523560 
	C402.857056,381.857025 405.103607,389.092163 412.567657,397.227478 
	C424.020325,409.710022 433.915405,423.621643 444.694366,437.212738 
z"/>
<path fill="#9F3F16" opacity="1.000000" stroke="none" 
	d="
M657.276245,475.466309 
	C652.402161,479.413605 647.523499,483.049500 642.449585,486.388702 
	C641.639954,486.921539 639.902771,486.290955 638.681458,485.915131 
	C622.552551,480.952362 606.406250,476.039734 590.365662,470.804321 
	C588.462036,470.183044 586.434875,467.999420 585.709351,466.071655 
	C583.508606,460.223907 581.918884,454.146118 580.124939,447.784851 
	C593.908264,434.371460 607.604126,421.273651 621.456970,408.343903 
	C623.951965,406.015198 625.021667,403.835999 623.714722,400.565063 
	C623.042664,398.882996 622.738220,397.045685 622.347473,395.261078 
	C620.626831,387.402863 620.631042,387.390503 627.568481,383.014801 
	C632.204407,380.090729 636.860535,377.198730 641.513733,374.302032 
	C641.639893,374.223480 641.834961,374.255554 642.775330,374.142883 
	C646.323914,381.612183 650.015503,389.312439 653.591187,397.066101 
	C653.829773,397.583435 653.322876,398.591736 652.921692,399.217133 
	C652.484558,399.898895 651.851501,400.541870 651.157898,400.959167 
	C642.142700,406.382935 641.587830,413.739502 644.355713,423.300171 
	C649.295471,440.362457 652.991150,457.784882 657.276245,475.466309 
z"/>
<path fill="#D7942A" opacity="1.000000" stroke="none" 
	d="
M338.781952,580.091064 
	C339.075012,586.658020 339.159790,593.141968 338.860199,599.608032 
	C338.792389,601.071655 337.641327,603.479858 336.562103,603.750305 
	C323.449524,607.036377 310.257294,610.004883 297.083618,613.046631 
	C296.764893,613.120239 296.421722,613.087646 295.695190,613.110168 
	C294.645111,603.510681 293.798553,593.914124 293.366791,584.298889 
	C291.249268,537.140564 289.242828,489.977173 287.195190,442.815674 
	C286.762604,432.852875 286.321869,422.890442 285.938812,412.460815 
	C286.471802,411.350372 286.950836,410.706879 286.976929,410.671844 
	C289.920898,428.257660 292.262756,446.546967 296.163330,464.497528 
	C301.465393,488.898010 307.308105,513.225708 314.170685,537.226685 
	C318.732697,553.181580 326.040894,568.190552 338.781952,580.091064 
z"/>
</svg>